<?xml version="1.0" standalone="no"?>
<!DOCTYPE svg PUBLIC "-//W3C//DTD SVG 20010904//EN"
 "http://www.w3.org/TR/2001/REC-SVG-20010904/DTD/svg10.dtd">
<svg version="1.0" xmlns="http://www.w3.org/2000/svg"
 width="201.000000pt" height="120.000000pt" viewBox="0 0 201.000000 120.000000"
 preserveAspectRatio="xMidYMid meet">

<g transform="translate(0.000000,120.000000) scale(0.100000,-0.100000)"
fill="#000000" stroke="none">
<path d="M292 1024 c-19 -13 -22 -24 -22 -89 0 -52 -4 -78 -15 -89 -8 -8 -15
-24 -15 -36 0 -12 7 -28 15 -36 10 -11 15 -36 15 -82 0 -89 15 -112 76 -112
40 0 44 2 44 24 0 15 -7 26 -20 29 -16 4 -20 14 -20 49 0 52 -15 109 -32 120
-10 6 -10 10 -1 16 19 12 33 60 33 114 0 41 3 51 20 55 13 3 20 14 20 29 0 21
-5 24 -38 24 -21 0 -48 -7 -60 -16z"/>
<path d="M1630 1016 c0 -15 7 -26 20 -29 17 -4 20 -14 20 -64 0 -32 7 -70 14
-85 13 -24 13 -32 0 -55 -7 -16 -14 -54 -14 -86 0 -51 -3 -60 -21 -64 -15 -4
-19 -12 -17 -32 3 -24 6 -26 43 -23 63 5 75 23 75 108 0 51 4 77 15 88 8 8 15
24 15 36 0 12 -7 28 -15 36 -10 11 -15 36 -15 85 0 85 -18 109 -80 109 -35 0
-40 -3 -40 -24z"/>
<path d="M515 1000 c-32 -13 -63 -53 -67 -85 -3 -27 0 -30 30 -33 27 -3 34 1
42 23 17 44 70 53 90 14 18 -33 0 -59 -138 -201 l-46 -48 142 0 142 0 0 35 0
35 -65 0 c-36 0 -65 4 -65 8 0 4 21 25 46 46 59 50 79 95 63 143 -19 59 -107
91 -174 63z"/>
<path d="M818 995 c-30 -17 -58 -62 -58 -95 0 -16 6 -20 34 -20 27 0 35 5 40
23 8 34 48 50 75 31 40 -29 27 -59 -69 -158 -49 -51 -90 -96 -90 -99 0 -4 61
-7 135 -7 l135 0 0 35 0 35 -67 0 -66 0 61 64 c74 77 81 114 34 167 -24 27
-37 33 -83 36 -36 2 -63 -2 -81 -12z"/>
<path d="M1139 996 c-85 -49 -99 -218 -24 -293 28 -28 40 -33 78 -33 63 0 91
13 115 52 46 74 41 183 -11 243 -28 32 -40 38 -82 41 -32 3 -59 -1 -76 -10z
m106 -79 c9 -13 15 -44 15 -78 0 -128 -103 -150 -117 -25 -7 55 2 91 27 116
22 22 54 17 75 -13z"/>
<path d="M1473 996 c-35 -7 -65 -14 -67 -17 -9 -9 -10 -64 -1 -63 6 1 25 5 43
9 l32 7 0 -131 0 -131 35 0 35 0 0 170 c0 94 -3 170 -7 169 -5 -1 -36 -6 -70
-13z"/>
<path d="M540 260 l0 -170 35 0 34 0 3 94 3 94 113 -100 112 -99 0 175 0 176
-35 0 -35 0 0 -90 c0 -49 -3 -90 -6 -90 -9 0 -83 61 -154 127 -32 29 -60 53
-64 53 -3 0 -6 -76 -6 -170z"/>
<path d="M920 259 l0 -172 100 5 c87 4 104 8 124 27 14 13 27 34 30 47 8 29
-16 79 -44 94 -18 10 -18 11 6 35 29 29 30 54 4 88 -25 32 -75 47 -157 47
l-63 0 0 -171z m144 95 c20 -20 20 -29 0 -49 -24 -24 -68 -16 -72 13 -2 13 -1
30 2 38 7 19 51 18 70 -2z m7 -124 c25 -14 25 -56 -1 -70 -12 -6 -33 -10 -48
-8 -24 3 -27 8 -30 46 -3 41 -2 42 28 42 17 0 40 -5 51 -10z"/>
<path d="M1240 260 l0 -172 95 4 c119 5 148 22 153 89 3 39 0 47 -29 72 -18
15 -28 27 -21 27 21 0 43 56 32 84 -16 43 -54 59 -146 64 l-84 5 0 -173z m140
92 l23 -19 -21 -21 c-12 -12 -33 -22 -47 -22 -22 0 -25 4 -25 33 0 19 3 37 7
40 12 13 40 7 63 -11z m11 -122 c25 -14 25 -56 -1 -70 -12 -6 -33 -10 -48 -8
-24 3 -27 8 -30 46 -3 41 -2 42 28 42 17 0 40 -5 51 -10z"/>
</g>
</svg>
